<?xml version="1.0" encoding="utf-8"?>
<!-- Generator: Adobe Illustrator 24.0.1, SVG Export Plug-In . SVG Version: 6.00 Build 0)  -->
<svg version="1.1" id="レイヤー_1" xmlns="http://www.w3.org/2000/svg" xmlns:xlink="http://www.w3.org/1999/xlink" x="0px"
	 y="0px" viewBox="0 0 255.1 283.5" style="enable-background:new 0 0 255.1 283.5;" xml:space="preserve">
<style type="text/css">
	.st0{fill:#FFFFFF;}
	.st1{clip-path:url(#SVGID_1_);}
	.st2{fill:#C6755C;}
	.st3{fill:#D5A990;}
	.st4{fill:#D0C68E;}
	.st5{fill:#7BADC0;}
	.st6{fill:#97CFAC;}
	.st7{fill:#DFD75F;}
	.st8{fill:#231815;}
</style>
<g>
	<path class="st0" d="M121.8,13.9l-55,42c-3.8,2.9-6,7.3-6,12.1v64c0,8.4,6.8,15.2,15.2,15.2h110c8.4,0,15.2-6.8,15.2-15.2V68
		c0-4.7-2.2-9.2-6-12.1l-55-42C134.8,9.8,127.2,9.8,121.8,13.9z"/>
	<g>
		<g>
			<defs>
				<path id="SVGID_3_" d="M121.8,13.9l-55,42c-3.8,2.9-6,7.3-6,12.1v64c0,8.4,6.8,15.2,15.2,15.2h110c8.4,0,15.2-6.8,15.2-15.2V68
					c0-4.7-2.2-9.2-6-12.1l-55-42C134.8,9.8,127.2,9.8,121.8,13.9z"/>
			</defs>
			<clipPath id="SVGID_1_">
				<use xlink:href="#SVGID_3_"  style="overflow:visible;"/>
			</clipPath>
			<g class="st1">
				<circle class="st2" cx="100.4" cy="40.6" r="28.7"/>
				<circle class="st3" cx="107.4" cy="140.5" r="28.7"/>
				<circle class="st4" cx="162.6" cy="63.4" r="28.7"/>
				<circle class="st5" cx="140.7" cy="22.9" r="28.7"/>
				<circle class="st6" cx="158.2" cy="107.7" r="46.4"/>
				<circle class="st5" cx="52.9" cy="171.1" r="46.4"/>
				<circle class="st5" cx="177.3" cy="154.3" r="46.4"/>
				<circle class="st7" cx="217.4" cy="81.6" r="46.4"/>
				<circle class="st7" cx="60.8" cy="95.6" r="46.4"/>
			</g>
		</g>
		<path class="st8" d="M112.9,205.2v27.3c0,3.3-2.9,6.1-6.6,6.3l0,0l0,0c-1.4,0.3-5.5,0.9-12.8,0.9c-5.7,0-12.2-0.4-19.1-1.2v-7.2
			c7,0.8,13.4,1.2,19.1,1.2c7.4,0,11-0.7,11.4-0.8l0.5-0.1v-25.8l-0.5-0.1c-0.4-0.1-4-0.8-11.4-0.8c-5.7,0-12.1,0.4-19.1,1.2v-7.2
			c6.9-0.8,13.4-1.2,19.1-1.2c7.3,0,11.4,0.6,12.8,0.9l0,0l0,0C110,199.1,112.9,201.9,112.9,205.2z M172.6,238.1l-1.4-6.9
			c-7.2,1.2-12.9,2.2-18.7,2.6c-7.3,0.5-12.6-1.3-12.6-1.3v-14.4c0.7,0,1.4,0,2.2,0c1.9,0,3.9-0.1,5.9-0.3c14.1-1.3,20-5.4,20.6-5.8
			l-4.6-6.4c0,0-4.9,3.3-16.8,4.4c-2.5,0.2-5,0.3-7.3,0.2v-15.5h-7.3v37.6c0,3.5,1.8,9.7,19.9,8.7
			C159.1,240.7,164.5,240.1,172.6,238.1z M242.3,210.1l-0.1,0.2c-1.3,3.3-8.3,20.2-19.5,22.8l-0.3,0.1v-38.6h-6.8v41.1
			c0,1.5,0.5,3,1.5,4c0.9,1,2.1,1.6,3.3,1.6c0.1,0,0.1,0,0.2,0c7.1-0.3,13.8-4.6,19.7-12.8c4.7-6.4,7.4-13.2,8.1-15.1l0.1-0.2
			L242.3,210.1z M59.7,214.2l-6.6-3.1c-0.8,1.5-3.5,6.5-8.3,11.3c-6.9,7-14.8,10.8-23.6,11.2l-0.6,0l0-38.9h-7.2l0,40.9
			c0,2.9,2.3,5.2,5.1,5.3c0.3,0,0.7,0,1,0c11.3,0,21.8-4.7,30.4-13.5C55.7,221.8,58.8,215.9,59.7,214.2z M187.8,199.8l-6.9-10.9
			l-4.7,3.2l6.9,10.9L187.8,199.8z M167.4,198l6.9,10.9l4.7-3.2l-6.9-10.9L167.4,198z M208.4,198.3h-7.2l0,0.3
			c0.3,9.6-0.7,26.1-12.5,28.8l1.5,7.2c5.7-1.3,14.9-6.2,17.3-21.1c1-6.1,1-12,0.9-15L208.4,198.3z M90.5,272.5l0.9,0.7
			c0.6-0.8,1.4-1.9,2.1-3c-0.3-0.1-0.7-0.3-0.9-0.6C91.8,270.7,91.1,271.8,90.5,272.5z M80.1,269.6c-1.2,0.1-2-0.2-2.6-0.7
			c-0.7-0.7-0.7-1.6-0.7-1.6V263c0-0.6,0-1.8,0-1.9c0-0.7-0.2-1.4-0.7-2c-0.1-0.1-0.2-0.3-0.5-0.4l-0.4,1.1c0.3,0.4,0.4,0.8,0.4,1.3
			c0,0.1,0,1.4,0,2v4.2c0,0.1,0,1.4,1,2.4c0.7,0.7,1.7,1,2.9,1c0.2,0,0.3,0,0.5,0c4.1-0.3,4.7-3.5,4.7-3.6l-1.1-0.2
			C83.8,267,83.3,269.4,80.1,269.6z M65.1,263.9c-2.3-0.3-3.9,0.4-4.9,1.1l1-3.3l-1.1-0.3l-1.6,5.3l1,0.4c0.1-0.1,1.6-2.6,5.4-2.1
			c1.2,0.1,2,0.7,2.3,1.5c0.2,0.7,0,1.4-0.5,1.9c-1.3,1.2-3.2,1.5-5.5,1.1l-0.2,1.1c0.7,0.1,1.4,0.2,2,0.2c1.8,0,3.3-0.5,4.5-1.5
			c0.9-0.7,1.2-1.9,0.9-3C67.9,264.9,66.8,264.1,65.1,263.9z M66.9,260c-3.7-0.3-5.6-1.2-5.6-1.3l-0.5,1c0.1,0,2.1,1.1,6,1.4
			L66.9,260z M120.6,261.3l-1.6,1.3l0.7,0.8l2.9-2.4l-0.4-1c-4.8,0.5-7.2,0.1-7.2,0.1l-0.2,1.1C115,261.2,116.8,261.6,120.6,261.3z
			 M42.9,265.5h9.1v1.1h-3.4c0.8,0.7,1.9,1.3,3.3,1.4l-0.1,1.1c-0.9-0.1-1.6-0.3-2.3-0.6v4h-1.1v-0.2h-7.9v0.2h-1.1v-3.9
			c-0.7,0.3-1.4,0.5-2.2,0.6l-0.1-1.1c1.4-0.1,2.5-0.7,3.4-1.4H37v-1.1h4.6c0.2-0.2,0.3-0.4,0.5-0.6h-3.4v-5.1h11.9v5.1h-7.2
			C43.2,265.1,43.1,265.3,42.9,265.5z M39.7,261.8h9.7v-0.9h-9.7V261.8z M49.4,263.8v-0.9h-9.7v0.9H49.4z M48.5,270.5h-7.9v0.8h7.9
			V270.5z M48.5,268.6h-7.9v0.8h7.9V268.6z M42.1,266.6c-0.3,0.3-0.5,0.6-0.9,0.9H48c-0.3-0.3-0.6-0.6-0.9-0.9H42.1z M47.8,256.9
			h-1.1v0.9h-4.3v-0.9h-1.1v0.9h-4.5v1.1h4.5v0.5h1.1v-0.5h4.3v0.5h1.1v-0.5h4.5v-1.1h-4.5V256.9z M197,269.7l0.1,1.1
			c0.1,0,8-1,10.7-8.5l-1-0.4C204.3,268.8,197.1,269.7,197,269.7z M214.4,263c0-0.5,0-1.6,0-1.7c0-0.7-0.2-1.3-0.6-1.8
			c-0.1-0.1-0.2-0.3-0.4-0.4l-0.4,1c0.2,0.3,0.4,0.7,0.4,1.1c0,0.1,0,1.2,0,1.7l0,7.4h1.1l0-5.6l7.2,1.1l0.2-1.1l-7.3-1.2L214.4,263
			z M198.1,259.3l-0.7,0.8l3.5,3.2l0.7-0.8L198.1,259.3z M188,265.1c0.7-1.4,1.2-2.8,1.5-4l0-0.2c0.3-0.9,0.3-1.2,0.3-1.3l-1.1-0.2
			c0,0-0.1,0.4-0.3,1.2l0,0.2c-0.3,0.9-0.7,2.2-1.4,3.6c-2.1-1.5-4.1-2.6-4.3-2.7l-0.5,1c0,0,2.1,1.2,4.3,2.7
			c-1.2,2-2.9,3.9-5.2,4.2l0.1,1.1c2.7-0.3,4.6-2.3,6-4.6c1.3,1,2.5,2.1,3.1,3.1l0.9-0.6C190.8,267.4,189.5,266.1,188,265.1z
			 M219.8,260.8c0,0,1.1,1.1,1.6,2.2l1-0.5c-0.6-1.2-1.8-2.4-1.8-2.5L219.8,260.8z M98.9,266.6c0,1.9-1.6,3.4-3.6,3.4
			s-3.6-1.5-3.6-3.4c0-1.9,1.6-3.4,3.6-3.4S98.9,264.7,98.9,266.6z M97,266.6c0-0.8-0.8-1.5-1.7-1.5s-1.7,0.7-1.7,1.5
			s0.8,1.5,1.7,1.5S97,267.4,97,266.6z M221.3,259.7c0,0,1.1,1.1,1.6,2.2l1-0.5c-0.6-1.2-1.8-2.4-1.8-2.5L221.3,259.7z M174,260.6
			h-7.9v1.1h7.9c0.1,0,0.2,0.1,0.2,0.2v5.9v0.5h-8.1v1.1h8.1v0.2h1.1v-0.2v-1.6v-5.9C175.3,261.2,174.7,260.6,174,260.6z
			 M123.7,259.8c0,0,1.2,1.3,1.9,2.5l1-0.5c-0.7-1.4-2-2.7-2.1-2.8L123.7,259.8z M115.6,269.2c-0.5-0.2-0.9-0.5-0.9-0.8
			c-0.1-0.5,0.2-1.3,1-2.2l-0.8-0.7c-0.7,0.8-1.5,2-1.2,3.2c0.2,0.7,0.7,1.2,1.6,1.5c1.1,0.4,2.2,0.6,3.4,0.6c1.8,0,3.7-0.4,5.4-1.3
			l-0.5-1C120.9,269.8,117.9,270.1,115.6,269.2z M106.2,269.7c-0.1,0.5-0.3,0.7-0.4,0.7h-3.1c-0.2,0-0.3-0.1-0.3-0.1l0.7-9.2
			c0-0.3-0.1-0.6-0.3-0.9c-0.2-0.2-0.6-0.4-0.9-0.4H98c0-0.2,0.1-0.5,0.1-0.7l0-0.1c0-0.7-0.2-1.4-0.6-2c-0.1-0.2-0.3-0.3-0.5-0.4
			l-0.4,1.1c0.3,0.4,0.4,0.8,0.4,1.3l0,0.1c0,0.2-0.1,0.5-0.1,0.7h-4.1v1.1h3.9c-0.1,0.5-0.3,1.1-0.5,1.7c0.4,0.1,0.7,0.2,1,0.4
			c0.2-0.7,0.4-1.4,0.6-2h4.2l0.1,0.1l-0.7,9.2c0,0.7,0.6,1.3,1.4,1.3h3.1c0.4,0,1.1-0.2,1.5-1.7l0.1-1.7l-1.1-0.1L106.2,269.7z
			 M135,268.8c-0.1-0.1-0.5-0.5-0.2-1.6c1.4-4.5,6.9-5,6.9-5l-0.1-1.1c-0.2,0-2.9,0.2-5.2,2l-0.3-0.7c-0.2-0.5-0.6-1.8-0.7-1.8
			c-0.2-0.7-0.7-1.3-1.3-1.7c-0.1-0.1-0.3-0.2-0.6-0.2l0,1.1c0.4,0.3,0.7,0.6,0.8,1.1c0,0.1,0.5,1.3,0.7,1.8l0.4,1.2
			c-0.7,0.8-1.4,1.7-1.7,2.9c-0.4,1.4,0,2.2,0.4,2.7c0.8,0.9,2.4,1.1,3.9,1.1c2.2,0,4.5-0.5,5-0.6l-0.3-1.1
			C140.4,269.6,136.1,270.1,135,268.8z M125.3,258.6c0,0,1.2,1.3,1.8,2.5l1-0.5c-0.7-1.4-2-2.7-2.1-2.8L125.3,258.6z M152,269.3
			l0-6.2c0-0.5,0-1.6,0-1.7c0-0.7-0.2-1.3-0.6-1.8c-0.1-0.2-0.3-0.3-0.4-0.4l-0.4,1c0.2,0.3,0.4,0.7,0.4,1.1c0,0.1,0,1.2,0,1.7
			l0,7.1l0.7,0.5c0.3-0.1,7.6-2.8,9-7.2l-1-0.3C158.6,266.2,153.9,268.5,152,269.3z"/>
	</g>
</g>
</svg>
