<?xml version="1.0" encoding="utf-8"?>
<!-- Generator: Adobe Illustrator 24.0.1, SVG Export Plug-In . SVG Version: 6.00 Build 0)  -->
<svg version="1.1" id="レイヤー_1" xmlns="http://www.w3.org/2000/svg" xmlns:xlink="http://www.w3.org/1999/xlink" x="0px"
	 y="0px" viewBox="0 0 244 52" style="enable-background:new 0 0 244 52;" xml:space="preserve">
<style type="text/css">
	.st0{fill:#FFFFFF;}
	.st1{clip-path:url(#SVGID_1_);}
	.st2{fill:#C6755C;}
	.st3{fill:#D5A990;}
	.st4{fill:#D0C68E;}
	.st5{fill:#7BADC0;}
	.st6{fill:#97CFAC;}
	.st7{fill:#DFD75F;}
	.st8{fill:#231815;}
</style>
<g>
	<path class="st0" d="M60.3,3L40.8,17.8c-1.3,1-2.1,2.6-2.1,4.3v22.6c0,3,2.4,5.4,5.4,5.4H83c3,0,5.4-2.4,5.4-5.4V22.1
		c0-1.7-0.8-3.2-2.1-4.3L66.8,3C64.9,1.5,62.2,1.5,60.3,3z"/>
	<g>
		<g>
			<g>
				<defs>
					<path id="SVGID_3_" d="M60.3,3L40.8,17.8c-1.3,1-2.1,2.6-2.1,4.3v22.6c0,3,2.4,5.4,5.4,5.4H83c3,0,5.4-2.4,5.4-5.4V22.1
						c0-1.7-0.8-3.2-2.1-4.3L66.8,3C64.9,1.5,62.2,1.5,60.3,3z"/>
				</defs>
				<clipPath id="SVGID_1_">
					<use xlink:href="#SVGID_3_"  style="overflow:visible;"/>
				</clipPath>
				<g class="st1">
					<circle class="st2" cx="52.7" cy="12.4" r="10.1"/>
					<circle class="st3" cx="55.2" cy="47.7" r="10.1"/>
					<circle class="st4" cx="74.7" cy="20.5" r="10.1"/>
					<circle class="st5" cx="67" cy="6.2" r="10.1"/>
					<circle class="st6" cx="73.1" cy="36.1" r="16.4"/>
					<circle class="st5" cx="35.9" cy="58.6" r="16.4"/>
					<circle class="st5" cx="79.9" cy="52.6" r="16.4"/>
					<circle class="st7" cx="94.1" cy="26.9" r="16.4"/>
					<circle class="st7" cx="38.7" cy="31.9" r="16.4"/>
				</g>
			</g>
		</g>
		<path class="st8" d="M153.6,20.1v11.5c0,1.4-1.2,2.6-2.8,2.7l0,0l0,0c-0.6,0.1-2.3,0.4-5.4,0.4c-2.4,0-5.1-0.2-8-0.5v-3
			c2.9,0.3,5.6,0.5,8,0.5c3.1,0,4.6-0.3,4.8-0.3l0.2,0V20.4l-0.2,0c-0.2,0-1.7-0.3-4.8-0.3c-2.4,0-5.1,0.2-8,0.5v-3
			c2.9-0.3,5.6-0.5,8-0.5c3.1,0,4.8,0.3,5.4,0.4l0,0l0,0C152.4,17.5,153.6,18.7,153.6,20.1z M178.7,33.9l-0.6-2.9
			c-3,0.5-5.4,0.9-7.8,1.1c-3.1,0.2-5.3-0.6-5.3-0.6v-6.1c0.3,0,0.6,0,0.9,0c0.8,0,1.6,0,2.5-0.1c5.9-0.6,8.4-2.3,8.7-2.5l-1.9-2.7
			c0,0-2.1,1.4-7.1,1.9c-1,0.1-2.1,0.1-3.1,0.1v-6.5h-3.1v15.8c0,1.5,0.7,4.1,8.4,3.7C173,35,175.3,34.7,178.7,33.9z M208,22.1
			L208,22.1c-0.6,1.5-3.5,8.6-8.2,9.7l-0.1,0V15.6h-2.8v17.3c0,0.6,0.2,1.2,0.6,1.7c0.4,0.4,0.9,0.7,1.4,0.7c0,0,0,0,0.1,0
			c3-0.1,5.8-1.9,8.3-5.4c2-2.7,3.1-5.5,3.4-6.4l0-0.1L208,22.1z M131.2,23.9l-2.8-1.3c-0.3,0.7-1.5,2.7-3.5,4.8
			c-2.9,3-6.2,4.6-9.9,4.7l-0.2,0l0-16.4h-3l0,17.2c0,1.2,1,2.2,2.2,2.2c0.1,0,0.3,0,0.4,0c4.8,0,9.2-2,12.8-5.7
			C129.5,27,130.8,24.6,131.2,23.9z M185.1,17.8l-2.9-4.6l-2,1.4l2.9,4.6L185.1,17.8z M176.5,17.1l2.9,4.6l2-1.4l-2.9-4.6
			L176.5,17.1z M193.8,17.2h-3l0,0.1c0.1,4-0.3,11-5.3,12.1l0.6,3c2.4-0.6,6.3-2.6,7.3-8.9c0.4-2.6,0.4-5,0.4-6.3L193.8,17.2z
			 M144.2,48.4l0.4,0.3c0.3-0.3,0.6-0.8,0.9-1.3c-0.1-0.1-0.3-0.1-0.4-0.2C144.7,47.6,144.4,48.1,144.2,48.4z M139.8,47.2
			c-0.5,0-0.9-0.1-1.1-0.3c-0.3-0.3-0.3-0.7-0.3-0.7v-1.8c0-0.2,0-0.8,0-0.8c0-0.3-0.1-0.6-0.3-0.8c0,0-0.1-0.1-0.2-0.2l-0.2,0.4
			c0.1,0.2,0.2,0.3,0.2,0.5c0,0,0,0.6,0,0.8v1.8c0,0,0,0.6,0.4,1c0.3,0.3,0.7,0.4,1.2,0.4c0.1,0,0.1,0,0.2,0c1.7-0.1,2-1.5,2-1.5
			l-0.5-0.1C141.3,46.1,141.1,47.1,139.8,47.2z M133.5,44.8c-1-0.1-1.6,0.1-2.1,0.4l0.4-1.4l-0.4-0.1l-0.7,2.2l0.4,0.2
			c0,0,0.7-1.1,2.3-0.9c0.5,0.1,0.9,0.3,1,0.6c0.1,0.3,0,0.6-0.2,0.8c-0.6,0.5-1.3,0.7-2.3,0.5l-0.1,0.5c0.3,0.1,0.6,0.1,0.8,0.1
			c0.7,0,1.4-0.2,1.9-0.7c0.4-0.3,0.5-0.8,0.4-1.3C134.7,45.2,134.2,44.8,133.5,44.8z M134.2,43.1c-1.6-0.1-2.3-0.5-2.4-0.5
			l-0.2,0.4c0,0,0.9,0.5,2.5,0.6L134.2,43.1z M156.8,43.7l-0.7,0.6l0.3,0.4l1.2-1l-0.2-0.4c-2,0.2-3,0-3,0l-0.1,0.5
			C154.5,43.6,155.2,43.8,156.8,43.7z M124.2,45.5h3.8v0.5h-1.4c0.3,0.3,0.8,0.6,1.4,0.6l0,0.5c-0.4,0-0.7-0.1-1-0.3v1.7h-0.5v-0.1
			h-3.3v0.1h-0.5v-1.7c-0.3,0.1-0.6,0.2-0.9,0.2l0-0.5c0.6,0,1.1-0.3,1.4-0.6h-1.5v-0.5h1.9c0.1-0.1,0.1-0.2,0.2-0.3h-1.4V43h5v2.1
			h-3C124.3,45.3,124.2,45.3,124.2,45.5z M122.8,43.9h4.1v-0.4h-4.1V43.9z M126.9,44.7v-0.4h-4.1v0.4H126.9z M126.5,47.5h-3.3v0.3
			h3.3V47.5z M126.5,46.7h-3.3v0.3h3.3V46.7z M123.8,45.9c-0.1,0.1-0.2,0.2-0.4,0.4h2.8c-0.1-0.1-0.3-0.2-0.4-0.4H123.8z
			 M126.2,41.8h-0.5v0.4h-1.8v-0.4h-0.5v0.4h-1.9v0.5h1.9v0.2h0.5v-0.2h1.8v0.2h0.5v-0.2h1.9v-0.5h-1.9V41.8z M189,47.2l0.1,0.5
			c0,0,3.4-0.4,4.5-3.6l-0.4-0.2C192,46.8,189,47.2,189,47.2z M196.3,44.4c0-0.2,0-0.7,0-0.7c0-0.3-0.1-0.5-0.2-0.8
			c0,0-0.1-0.1-0.2-0.1l-0.2,0.4c0.1,0.1,0.2,0.3,0.1,0.5c0,0,0,0.5,0,0.7l0,3.1h0.5l0-2.3l3,0.5l0.1-0.5l-3.1-0.5L196.3,44.4z
			 M189.4,42.8l-0.3,0.3l1.5,1.4l0.3-0.3L189.4,42.8z M185.2,45.3c0.3-0.6,0.5-1.2,0.6-1.7l0-0.1C186,43.1,186,43,186,43l-0.5-0.1
			c0,0,0,0.2-0.1,0.5l0,0.1c-0.1,0.4-0.3,0.9-0.6,1.5c-0.9-0.6-1.7-1.1-1.8-1.1l-0.2,0.4c0,0,0.9,0.5,1.8,1.1
			c-0.5,0.9-1.2,1.7-2.2,1.8l0.1,0.5c1.1-0.1,2-1,2.5-2c0.5,0.4,1,0.9,1.3,1.3l0.4-0.3C186.4,46.2,185.8,45.7,185.2,45.3z
			 M198.6,43.4c0,0,0.5,0.5,0.7,0.9l0.4-0.2c-0.3-0.5-0.8-1-0.8-1L198.6,43.4z M147.7,45.9c0,0.8-0.7,1.4-1.5,1.4s-1.5-0.6-1.5-1.4
			c0-0.8,0.7-1.4,1.5-1.4S147.7,45.1,147.7,45.9z M146.9,45.9c0-0.3-0.3-0.6-0.7-0.6s-0.7,0.3-0.7,0.6c0,0.3,0.3,0.6,0.7,0.6
			S146.9,46.2,146.9,45.9z M199.2,43c0,0,0.5,0.5,0.7,0.9l0.4-0.2c-0.3-0.5-0.8-1-0.8-1L199.2,43z M179.3,43.4H176v0.5h3.3
			c0.1,0,0.1,0,0.1,0.1v2.5v0.2H176v0.5h3.4v0.1h0.5v-0.1v-0.7v-2.5C179.8,43.6,179.6,43.4,179.3,43.4z M158.1,43c0,0,0.5,0.5,0.8,1
			l0.4-0.2c-0.3-0.6-0.8-1.1-0.9-1.2L158.1,43z M154.7,47c-0.2-0.1-0.4-0.2-0.4-0.3c-0.1-0.2,0.1-0.5,0.4-0.9l-0.4-0.3
			c-0.3,0.3-0.7,0.9-0.5,1.4c0.1,0.3,0.3,0.5,0.7,0.6c0.4,0.2,0.9,0.3,1.4,0.3c0.8,0,1.5-0.2,2.3-0.5l-0.2-0.4
			C157,47.3,155.7,47.4,154.7,47z M150.8,47.2c-0.1,0.2-0.1,0.3-0.2,0.3h-1.3c-0.1,0-0.1,0-0.1-0.1l0.3-3.9c0-0.1,0-0.3-0.1-0.4
			c-0.1-0.1-0.2-0.2-0.4-0.2h-1.7c0-0.1,0-0.2,0-0.3l0-0.1c0-0.3-0.1-0.6-0.3-0.8c-0.1-0.1-0.1-0.1-0.2-0.2l-0.2,0.4
			c0.1,0.1,0.2,0.3,0.2,0.5l0,0c0,0.1,0,0.2,0,0.3h-1.7v0.5h1.6c-0.1,0.2-0.1,0.5-0.2,0.7c0.2,0,0.3,0.1,0.4,0.2
			c0.1-0.3,0.2-0.6,0.2-0.8h1.8l0,0l-0.3,3.9c0,0.3,0.3,0.5,0.6,0.5h1.3c0.2,0,0.5-0.1,0.6-0.7l0.1-0.7l-0.5,0L150.8,47.2z
			 M162.9,46.8c-0.1-0.1-0.2-0.2-0.1-0.7c0.6-1.9,2.9-2.1,2.9-2.1l0-0.5c-0.1,0-1.2,0.1-2.2,0.9l-0.1-0.3c-0.1-0.2-0.3-0.7-0.3-0.8
			c-0.1-0.3-0.3-0.5-0.5-0.7c-0.1,0-0.1-0.1-0.2-0.1l0,0.5c0.2,0.1,0.3,0.3,0.4,0.5c0,0,0.2,0.5,0.3,0.8l0.2,0.5
			c-0.3,0.3-0.6,0.7-0.7,1.2c-0.2,0.6,0,0.9,0.2,1.1c0.3,0.4,1,0.5,1.7,0.5c0.9,0,1.9-0.2,2.1-0.3l-0.1-0.4
			C165.2,47.2,163.4,47.4,162.9,46.8z M158.8,42.5c0,0,0.5,0.5,0.8,1l0.4-0.2c-0.3-0.6-0.8-1.1-0.9-1.2L158.8,42.5z M170,47l0-2.6
			c0-0.2,0-0.7,0-0.7c0-0.3-0.1-0.5-0.2-0.8c-0.1-0.1-0.1-0.1-0.2-0.2l-0.2,0.4c0.1,0.1,0.2,0.3,0.1,0.5c0,0,0,0.5,0,0.7l0,3
			l0.3,0.2c0.1,0,3.2-1.2,3.8-3l-0.4-0.1C172.8,45.7,170.8,46.7,170,47z"/>
	</g>
</g>
</svg>
