<svg id="レイヤー_1" xmlns="http://www.w3.org/2000/svg" viewBox="0 0 244 52"><style>.st0{fill:#1a1311}</style><path class="st0" d="M4.8 49.8c-.1-3.4-.1-6.7-.1-9.6 0-4 0-7.2.1-9 .1-5.4 5.7-8.5 10.6-8.5 1.4 0 2.2-1 2.2-2s-.7-1.9-2.2-1.9c-.8 0-7.1.4-10.2 4.7-.1.1-.2.3-.3.3 0 0-.1-.1-.1-.4 0-1 .1-1.5.1-2.5 0-1.3-1.1-2-2.1-2-1.1 0-2.2.7-2.2 1.8v.1c.1 3.1.1 6.8.1 10.7 0 6-.1 12.6-.3 18.3v.1c0 1.3 1.1 2 2.2 2 1.2-.2 2.2-.8 2.2-2.1zM49 29.4c0 1.1-.6 1.9-2.3 2-2 .1-5.9.1-9.5.1-8.1 0-8.8 0-8.8-.7 0-2.6 4.3-8.6 11-8.6 7.1-.1 9.6 5.2 9.6 7.2zm4.2 15.7c0-1.1-1.1-2-2.1-2-.5 0-1 .2-1.4.6-2.2 2.5-5 4.6-10.1 4.6-6.7 0-11.8-4.7-11.8-12.3 0-1 .1-1.3.8-1.3 1.5 0 7.5.1 12.7.1 2.6 0 5 0 6.6-.1 3.5-.1 5.1-2 5.1-4.7 0-4-4.2-11.5-13.8-11.5-8.3 0-15.6 6.7-15.6 16.9 0 9.9 6.9 16.5 15.8 16.5 8.9.2 13.8-5.1 13.8-6.8zm36.7.2c0-1.2-1-2.2-2.2-2.2-.6 0-1.3.3-1.8 1-1.9 2.7-5.3 4-8.8 4-7.9 0-12.2-6.4-12.2-13 0-7.5 5.1-13.2 12-13.2 3 0 6 1.1 7.8 3.4.6.7 1.2 1 1.8 1 1.1 0 2-.9 2-2.1 0-2.1-4.6-6-11.7-6-9.5 0-16.1 7.8-16.1 17.1 0 8.3 5.7 16.5 16.4 16.5 7.6.2 12.8-4.5 12.8-6.5zm22.5 3c-6.7 0-12.1-5.2-12.1-13 0-7.9 5.4-13.1 12.1-13.1 6.7 0 12.2 5.2 12.2 13.1 0 7.8-5.4 13-12.2 13zm0 3.8c9.3 0 16.3-6.7 16.3-16.8 0-9.7-7-16.7-16.3-16.7s-16.2 7-16.2 16.7c.1 10.1 6.9 16.8 16.2 16.8zm43.2-4c-6.6 0-11.9-5-11.9-12.9 0-7.8 5.2-13.1 11.9-13.1s11.8 5.2 11.8 13.1c.1 7.8-5.1 12.9-11.8 12.9zM143.9 2.4c0-1.4-1-2.2-2.1-2.2-.6 0-2.2.3-2.1 2.4.1 2.2.1 7 .1 12.7 0 11.4-.1 26.7-.1 34 0 1.6 1 2.4 2 2.4.1 0 2.1 0 2.1-2.8 0-2.9.1-2.9.1-2.9.1 0 .4.3.8.8 2.8 3.4 6.9 5 11.1 5 9.1 0 15.9-6.5 15.9-16.7 0-9.8-6.8-16.7-15.9-16.7-4.8 0-8.9 2.1-11.3 5.4-.3.4-.5.6-.6.6-.1 0-.1-.3-.1-.8-.1-8.3-.1-15.8.1-21.2zm64.4 18.5c0-1.3-1.1-2-2.2-2-1 0-2 .6-2 1.9v.1c.1 3.7.1 7.4.1 11.1 0 2.4-.1 4.8-.1 7.1-.1 5.7-5.5 9.5-10.4 9.5-3.9 0-7.6-2.4-7.9-8.1-.1-1.1-.1-3.6-.1-6.5 0-4.5.1-10.1.1-13v-.1c0-1.3-1-2-2.1-2-1 0-2 .6-2 2-.1 1.5-.1 3.5-.1 5.7 0 5.3.1 11.8.2 14.3.2 7.7 5.8 11.2 11.6 11.2 4.4 0 8.9-2 11.3-5.6.1-.1.1-.1.2-.1s.1.1.1.3c.1 1.2 1.1 4.9 3.4 4.9 1.1 0 2.2-.8 2.2-2 0-.4-.1-.9-.5-1.4-1.8-2.6-2.1-5.8-2.1-10.3.1-5.8.2-11.6.3-17zm17.4 28.6c-.1-3.9-.1-9.1-.1-14.1 0-6 .1-11.8.1-14.7v-.1c0-1.3-1.1-1.9-2.2-1.9s-2.2.7-2.2 2v.1c.1 2 .1 4.8.1 8.1 0 6.5-.1 14.7-.1 20.6 0 1.4 1.1 2.1 2.2 2.1 1.1.1 2.2-.6 2.2-2.1zm1.2-46.3c0-2.7-2.4-3.2-3.4-3.2-1.4 0-3.4 1.1-3.4 3.2 0 .4 0 3.4 3.3 3.4 1.7 0 3.5-1.2 3.5-3.4zm17.2 45.9c-.1-5-.1-13.8-.1-22.5 0-10.6.1-21 .1-24.2 0-1.4-1-2.1-2.1-2.1s-2.2.7-2.2 2.2v.1c.1 2.9.1 12 .1 21.7 0 9.6 0 19.8-.1 24.8v.1c0 1.5 1.1 2.2 2.2 2.2s2.1-.7 2.1-2.3z"/></svg>