<?xml version="1.0" encoding="utf-8"?>
<!-- Generator: Adobe Illustrator 24.0.1, SVG Export Plug-In . SVG Version: 6.00 Build 0)  -->
<svg version="1.1" id="レイヤー_1" xmlns="http://www.w3.org/2000/svg" xmlns:xlink="http://www.w3.org/1999/xlink" x="0px"
	 y="0px" viewBox="0 0 141.7 155.9" style="enable-background:new 0 0 141.7 155.9;" xml:space="preserve">
<style type="text/css">
	.st0{fill:#FFFFFF;}
	.st1{clip-path:url(#SVGID_1_);}
	.st2{fill:#C6755C;}
	.st3{fill:#D5A990;}
	.st4{fill:#D0C68E;}
	.st5{fill:#7BADC0;}
	.st6{fill:#97CFAC;}
	.st7{fill:#DFD75F;}
	.st8{fill:#231815;}
</style>
<g>
	<path class="st0" d="M66,3.3L34,27.8c-2.2,1.7-3.5,4.3-3.5,7v37.3c0,4.9,4,8.8,8.8,8.8h64.1c4.9,0,8.8-4,8.8-8.8V34.8
		c0-2.8-1.3-5.4-3.5-7l-32-24.5C73.6,0.9,69.2,0.9,66,3.3z"/>
	<g>
		<g>
			<defs>
				<path id="SVGID_3_" d="M66,3.3L34,27.8c-2.2,1.7-3.5,4.3-3.5,7v37.3c0,4.9,4,8.8,8.8,8.8h64.1c4.9,0,8.8-4,8.8-8.8V34.8
					c0-2.8-1.3-5.4-3.5-7l-32-24.5C73.6,0.9,69.2,0.9,66,3.3z"/>
			</defs>
			<clipPath id="SVGID_1_">
				<use xlink:href="#SVGID_3_"  style="overflow:visible;"/>
			</clipPath>
			<g class="st1">
				<circle class="st2" cx="53.6" cy="18.8" r="16.7"/>
				<circle class="st3" cx="57.6" cy="77.1" r="16.7"/>
				<circle class="st4" cx="89.8" cy="32.2" r="16.7"/>
				<circle class="st5" cx="77.1" cy="8.5" r="16.7"/>
				<circle class="st6" cx="87.3" cy="57.9" r="27.1"/>
				<circle class="st5" cx="25.9" cy="94.9" r="27.1"/>
				<circle class="st5" cx="98.4" cy="85.2" r="27.1"/>
				<circle class="st7" cx="121.8" cy="42.7" r="27.1"/>
				<circle class="st7" cx="30.5" cy="50.9" r="27.1"/>
			</g>
		</g>
		<path class="st8" d="M60.8,114.8v15.9c0,1.9-1.7,3.5-3.8,3.7l0,0l0,0c-0.8,0.2-3.2,0.5-7.5,0.5c-3.3,0-7.1-0.2-11.1-0.7v-4.2
			c4.1,0.5,7.8,0.7,11.1,0.7c4.3,0,6.4-0.4,6.7-0.4l0.3-0.1v-15l-0.3-0.1c-0.2,0-2.3-0.4-6.7-0.4c-3.3,0-7.1,0.2-11.2,0.7v-4.2
			c4-0.4,7.8-0.7,11.1-0.7c4.2,0,6.6,0.4,7.5,0.5l0,0l0,0C59.2,111.2,60.8,112.8,60.8,114.8z M95.6,134l-0.8-4
			c-4.2,0.7-7.5,1.3-10.9,1.5c-4.3,0.3-7.4-0.8-7.4-0.8v-8.4c0.4,0,0.8,0,1.3,0c1.1,0,2.3,0,3.4-0.1c8.2-0.8,11.7-3.1,12-3.4
			l-2.7-3.7c0,0-2.9,1.9-9.8,2.6c-1.4,0.1-2.9,0.1-4.2,0.1v-9h-4.2v21.9c0,2,1,5.7,11.6,5.1C87.8,135.5,91,135.1,95.6,134z
			 M136.3,117.7l-0.1,0.1c-0.8,1.9-4.9,11.7-11.4,13.3l-0.2,0v-22.5h-3.9v23.9c0,0.9,0.3,1.7,0.9,2.3c0.5,0.6,1.2,0.9,1.9,0.9
			c0,0,0.1,0,0.1,0c4.1-0.2,8-2.7,11.5-7.4c2.7-3.7,4.3-7.7,4.7-8.8l0-0.1L136.3,117.7z M29.9,120l-3.8-1.8
			c-0.5,0.9-2.1,3.8-4.8,6.6c-4,4.1-8.6,6.3-13.8,6.6l-0.3,0l0-22.7H2.9l0,23.8c0,1.7,1.3,3.1,3,3.1c0.2,0,0.4,0,0.6,0
			c6.6,0,12.7-2.7,17.7-7.8C27.5,124.4,29.4,121,29.9,120z M104.5,111.6l-4-6.3l-2.8,1.9l4,6.3L104.5,111.6z M92.7,110.6l4,6.3
			l2.8-1.9l-4-6.3L92.7,110.6z M116.5,110.8h-4.2l0,0.2c0.2,5.6-0.4,15.2-7.3,16.8l0.9,4.2c3.3-0.8,8.7-3.6,10.1-12.3
			c0.6-3.5,0.6-7,0.5-8.7L116.5,110.8z M47.8,154l0.5,0.4c0.4-0.5,0.8-1.1,1.2-1.7c-0.2-0.1-0.4-0.2-0.5-0.3
			C48.6,153,48.2,153.6,47.8,154z M41.8,152.3c-0.7,0-1.2-0.1-1.5-0.4c-0.4-0.4-0.4-0.9-0.4-1v-2.5c0-0.3,0-1.1,0-1.1
			c0-0.4-0.1-0.8-0.4-1.2c-0.1-0.1-0.1-0.2-0.3-0.2l-0.2,0.6c0.2,0.2,0.2,0.5,0.2,0.7c0,0,0,0.8,0,1.1v2.5c0,0,0,0.8,0.6,1.4
			c0.4,0.4,1,0.6,1.7,0.6c0.1,0,0.2,0,0.3,0c2.4-0.2,2.7-2.1,2.7-2.1l-0.6-0.1C43.9,150.8,43.6,152.2,41.8,152.3z M33,149
			c-1.3-0.2-2.3,0.2-2.9,0.6l0.6-1.9l-0.6-0.2l-0.9,3.1l0.6,0.3c0-0.1,1-1.5,3.2-1.2c0.7,0.1,1.2,0.4,1.3,0.9c0.1,0.4,0,0.8-0.3,1.1
			c-0.8,0.7-1.9,0.9-3.2,0.6l-0.1,0.6c0.4,0.1,0.8,0.1,1.2,0.1c1,0,1.9-0.3,2.6-0.9c0.5-0.4,0.7-1.1,0.5-1.7
			C34.7,149.6,34,149.1,33,149z M34.1,146.7c-2.1-0.2-3.3-0.7-3.3-0.7l-0.3,0.6c0,0,1.2,0.6,3.5,0.8L34.1,146.7z M65.4,147.5
			l-0.9,0.8l0.4,0.5l1.7-1.4l-0.2-0.6c-2.8,0.3-4.2,0-4.2,0l-0.1,0.6C62.1,147.5,63.2,147.6,65.4,147.5z M20.1,150h5.3v0.6h-2
			c0.5,0.4,1.1,0.8,1.9,0.8l0,0.6c-0.5,0-0.9-0.2-1.3-0.4v2.3h-0.6v-0.1h-4.6v0.1h-0.6v-2.3c-0.4,0.2-0.8,0.3-1.3,0.3l0-0.6
			c0.8-0.1,1.5-0.4,2-0.8h-2V150h2.7c0.1-0.1,0.2-0.3,0.3-0.4h-2v-3h6.9v3h-4.2C20.3,149.7,20.2,149.8,20.1,150z M18.2,147.8h5.6
			v-0.5h-5.6V147.8z M23.8,149v-0.5h-5.6v0.5H23.8z M23.3,152.8h-4.6v0.5h4.6V152.8z M23.3,151.7h-4.6v0.4h4.6V151.7z M19.6,150.6
			c-0.1,0.2-0.3,0.3-0.5,0.5H23c-0.2-0.2-0.4-0.3-0.5-0.5H19.6z M22.9,144.9h-0.6v0.5h-2.5v-0.5h-0.6v0.5h-2.6v0.6h2.6v0.3h0.6v-0.3
			h2.5v0.3h0.6v-0.3h2.6v-0.6h-2.6V144.9z M109.9,152.4l0.1,0.6c0,0,4.7-0.6,6.2-5l-0.6-0.2C114.1,151.8,109.9,152.4,109.9,152.4z
			 M120,148.5c0-0.3,0-0.9,0-1c0-0.4-0.1-0.8-0.3-1.1c-0.1-0.1-0.1-0.2-0.3-0.2l-0.2,0.6c0.1,0.2,0.2,0.4,0.2,0.6c0,0,0,0.7,0,1
			l0,4.3h0.6l0-3.2l4.2,0.7l0.1-0.6l-4.3-0.7L120,148.5z M110.5,146.3l-0.4,0.5l2.1,1.9l0.4-0.5L110.5,146.3z M104.7,149.7
			c0.4-0.8,0.7-1.6,0.9-2.3l0-0.1c0.1-0.5,0.2-0.7,0.2-0.7l-0.6-0.1c0,0,0,0.2-0.2,0.7l0,0.1c-0.2,0.5-0.4,1.3-0.8,2.1
			c-1.2-0.9-2.4-1.5-2.5-1.6l-0.3,0.6c0,0,1.3,0.7,2.5,1.6c-0.7,1.2-1.7,2.3-3,2.5l0.1,0.6c1.6-0.2,2.7-1.4,3.5-2.7
			c0.8,0.6,1.5,1.2,1.8,1.8l0.5-0.3C106.3,151,105.5,150.3,104.7,149.7z M123.2,147.2c0,0,0.6,0.7,1,1.3l0.6-0.3
			c-0.4-0.7-1-1.4-1.1-1.4L123.2,147.2z M52.7,150.6c0,1.1-0.9,2-2.1,2c-1.2,0-2.1-0.9-2.1-2c0-1.1,0.9-2,2.1-2
			C51.8,148.6,52.7,149.5,52.7,150.6z M51.6,150.6c0-0.5-0.4-0.9-1-0.9c-0.5,0-1,0.4-1,0.9s0.4,0.9,1,0.9
			C51.1,151.4,51.6,151,51.6,150.6z M124,146.6c0,0,0.6,0.7,1,1.3l0.6-0.3c-0.4-0.7-1-1.4-1.1-1.4L124,146.6z M96.5,147.1h-4.6v0.6
			h4.6c0.1,0,0.1,0,0.1,0.1v3.5v0.3h-4.7v0.6h4.7v0.1h0.6v-0.1v-0.9v-3.5C97.2,147.4,96.9,147.1,96.5,147.1z M67.2,146.6
			c0,0,0.7,0.7,1.1,1.5l0.6-0.3c-0.4-0.8-1.2-1.6-1.2-1.6L67.2,146.6z M62.4,152.1c-0.3-0.1-0.5-0.3-0.6-0.5
			c-0.1-0.3,0.1-0.7,0.6-1.3l-0.5-0.4c-0.4,0.5-0.9,1.2-0.7,1.9c0.1,0.4,0.4,0.7,0.9,0.9c0.6,0.2,1.3,0.3,2,0.3c1,0,2.1-0.3,3.2-0.7
			l-0.3-0.6C65.5,152.5,63.8,152.6,62.4,152.1z M57,152.4c-0.1,0.3-0.2,0.4-0.2,0.4H55c-0.1,0-0.2-0.1-0.2-0.1l0.4-5.3
			c0-0.2,0-0.4-0.2-0.5c-0.1-0.1-0.3-0.2-0.5-0.2h-2.4c0-0.1,0-0.3,0-0.4l0-0.1c0-0.4-0.1-0.8-0.4-1.2c-0.1-0.1-0.2-0.2-0.3-0.2
			l-0.2,0.6c0.2,0.2,0.2,0.5,0.2,0.8l0,0.1c0,0.1,0,0.3-0.1,0.4h-2.4v0.6h2.3c-0.1,0.3-0.2,0.6-0.3,1c0.2,0,0.4,0.1,0.6,0.2
			c0.1-0.4,0.2-0.8,0.3-1.2h2.5l0.1,0l-0.4,5.4c0,0.4,0.4,0.7,0.8,0.7h1.8c0.2,0,0.7-0.1,0.9-1l0.1-1l-0.6,0L57,152.4z M73.7,151.9
			c-0.1-0.1-0.3-0.3-0.1-0.9c0.8-2.6,4-2.9,4-2.9l0-0.6c-0.1,0-1.7,0.1-3.1,1.2l-0.2-0.4c-0.1-0.3-0.4-1-0.4-1.1
			c-0.1-0.4-0.4-0.7-0.7-1c-0.1,0-0.2-0.1-0.3-0.1l0,0.7c0.2,0.2,0.4,0.4,0.5,0.6c0,0,0.3,0.8,0.4,1.1L74,149c-0.4,0.4-0.8,1-1,1.7
			c-0.3,0.8,0,1.3,0.2,1.6c0.5,0.5,1.4,0.7,2.3,0.7c1.3,0,2.6-0.3,2.9-0.4l-0.1-0.6C76.9,152.3,74.4,152.6,73.7,151.9z M68.1,145.9
			c0,0,0.7,0.7,1.1,1.5l0.6-0.3c-0.4-0.8-1.2-1.6-1.2-1.6L68.1,145.9z M83.7,152.1l0-3.6c0-0.3,0-0.9,0-1c0-0.4-0.1-0.8-0.3-1
			c-0.1-0.1-0.2-0.2-0.3-0.2l-0.2,0.6c0.1,0.2,0.2,0.4,0.2,0.6c0,0,0,0.7,0,1l0,4.1l0.4,0.3c0.2-0.1,4.4-1.6,5.2-4.2l-0.6-0.2
			C87.5,150.3,84.7,151.7,83.7,152.1z"/>
	</g>
</g>
</svg>
