<?xml version="1.0" encoding="utf-8"?>
<!-- Generator: Adobe Illustrator 24.0.1, SVG Export Plug-In . SVG Version: 6.00 Build 0)  -->
<svg version="1.1" id="レイヤー_1" xmlns="http://www.w3.org/2000/svg" xmlns:xlink="http://www.w3.org/1999/xlink" x="0px"
	 y="0px" viewBox="0 0 244 147.6" style="enable-background:new 0 0 244 147.6;" xml:space="preserve">
<style type="text/css">
	.st0{fill:#FFFFFF;}
	.st1{clip-path:url(#SVGID_1_);}
	.st2{fill:#C6755C;}
	.st3{fill:#D5A990;}
	.st4{fill:#D0C68E;}
	.st5{fill:#7BADC0;}
	.st6{fill:#97CFAC;}
	.st7{fill:#DFD75F;}
	.st8{fill:#231815;}
</style>
<g>
	<path class="st0" d="M111.7,6.1L83.2,27.9c-2,1.5-3.1,3.8-3.1,6.3v33.3c0,4.4,3.5,7.9,7.9,7.9h57.1c4.4,0,7.9-3.5,7.9-7.9V34.1
		c0-2.5-1.1-4.8-3.1-6.3L121.3,6.1C118.5,3.9,114.6,3.9,111.7,6.1z"/>
	<g>
		<g>
			<defs>
				<path id="SVGID_3_" d="M111.7,6.1L83.2,27.9c-2,1.5-3.1,3.8-3.1,6.3v33.3c0,4.4,3.5,7.9,7.9,7.9h57.1c4.4,0,7.9-3.5,7.9-7.9
					V34.1c0-2.5-1.1-4.8-3.1-6.3L121.3,6.1C118.5,3.9,114.6,3.9,111.7,6.1z"/>
			</defs>
			<clipPath id="SVGID_1_">
				<use xlink:href="#SVGID_3_"  style="overflow:visible;"/>
			</clipPath>
			<g class="st1">
				<circle class="st2" cx="100.6" cy="19.9" r="14.9"/>
				<circle class="st3" cx="104.3" cy="71.9" r="14.9"/>
				<circle class="st4" cx="132.9" cy="31.8" r="14.9"/>
				<circle class="st5" cx="121.6" cy="10.7" r="14.9"/>
				<circle class="st6" cx="130.7" cy="54.8" r="24.1"/>
				<circle class="st5" cx="75.9" cy="87.8" r="24.1"/>
				<circle class="st5" cx="140.6" cy="79" r="24.1"/>
				<circle class="st7" cx="161.4" cy="41.2" r="24.1"/>
				<circle class="st7" cx="80.1" cy="48.5" r="24.1"/>
			</g>
		</g>
		<path class="st8" d="M107.1,105.4v14.2c0,1.7-1.5,3.2-3.4,3.3l0,0l0,0c-0.7,0.1-2.9,0.5-6.7,0.5c-3,0-6.3-0.2-9.9-0.6v-3.7
			c3.6,0.4,7,0.6,9.9,0.6c3.8,0,5.7-0.4,5.9-0.4l0.2,0v-13.4l-0.2,0c-0.2,0-2.1-0.4-5.9-0.4c-3,0-6.3,0.2-9.9,0.6v-3.7
			c3.6-0.4,7-0.6,9.9-0.6c3.8,0,5.9,0.3,6.7,0.5l0,0l0,0C105.6,102.3,107.1,103.7,107.1,105.4z M138.1,122.6l-0.7-3.6
			c-3.7,0.6-6.7,1.2-9.7,1.4c-3.8,0.3-6.6-0.7-6.6-0.7v-7.5c0.4,0,0.7,0,1.1,0c1,0,2,0,3-0.1c7.3-0.7,10.4-2.8,10.7-3l-2.4-3.3
			c0,0-2.5,1.7-8.7,2.3c-1.3,0.1-2.6,0.1-3.8,0.1v-8h-3.8v19.5c0,1.8,0.9,5.1,10.3,4.5C131.1,123.9,134,123.6,138.1,122.6z
			 M174.4,108l0,0.1c-0.7,1.7-4.3,10.5-10.1,11.8l-0.1,0V99.9h-3.5v21.3c0,0.8,0.3,1.5,0.8,2.1c0.5,0.5,1.1,0.8,1.7,0.8
			c0,0,0.1,0,0.1,0c3.7-0.2,7.1-2.4,10.2-6.6c2.4-3.3,3.8-6.8,4.2-7.8l0-0.1L174.4,108z M79.5,110.1l-3.4-1.6
			c-0.4,0.8-1.8,3.4-4.3,5.9c-3.6,3.7-7.7,5.6-12.3,5.8l-0.3,0l0-20.2h-3.8l0,21.2c0,1.5,1.2,2.7,2.7,2.8c0.2,0,0.3,0,0.5,0
			c5.9,0,11.3-2.4,15.8-7C77.4,114.1,79,111,79.5,110.1z M146.1,102.6l-3.6-5.6l-2.5,1.7l3.6,5.6L146.1,102.6z M135.5,101.7l3.6,5.6
			l2.5-1.7l-3.6-5.6L135.5,101.7z M156.8,101.9H153l0,0.1c0.2,5-0.4,13.6-6.5,15l0.8,3.8c3-0.7,7.7-3.2,9-10.9
			c0.5-3.2,0.5-6.2,0.5-7.8L156.8,101.9z M95.5,140.4l0.5,0.3c0.3-0.4,0.7-1,1.1-1.6c-0.2-0.1-0.3-0.2-0.5-0.3
			C96.2,139.5,95.8,140.1,95.5,140.4z M90.1,138.9c-0.6,0-1.1-0.1-1.3-0.4c-0.4-0.3-0.4-0.8-0.4-0.9v-2.2c0-0.3,0-0.9,0-1
			c0-0.4-0.1-0.7-0.3-1c0-0.1-0.1-0.1-0.2-0.2l-0.2,0.6c0.1,0.2,0.2,0.4,0.2,0.7c0,0,0,0.7,0,1v2.2c0,0,0,0.7,0.5,1.3
			c0.4,0.3,0.9,0.5,1.5,0.5c0.1,0,0.2,0,0.3,0c2.1-0.1,2.4-1.8,2.4-1.9l-0.6-0.1C92,137.6,91.8,138.8,90.1,138.9z M82.3,136
			c-1.2-0.1-2,0.2-2.6,0.6l0.5-1.7l-0.5-0.2l-0.8,2.7l0.5,0.2c0-0.1,0.9-1.3,2.8-1.1c0.6,0.1,1.1,0.4,1.2,0.8c0.1,0.3,0,0.7-0.3,1
			c-0.7,0.6-1.7,0.8-2.9,0.6l-0.1,0.6c0.4,0.1,0.7,0.1,1,0.1c0.9,0,1.7-0.3,2.3-0.8c0.4-0.4,0.6-1,0.5-1.6
			C83.8,136.5,83.2,136.1,82.3,136z M83.2,134c-1.9-0.1-2.9-0.6-2.9-0.7l-0.3,0.5c0,0,1.1,0.6,3.1,0.7L83.2,134z M111.1,134.6
			l-0.8,0.7l0.4,0.4l1.5-1.3L112,134c-2.5,0.2-3.7,0-3.7,0l-0.1,0.6C108.2,134.6,109.2,134.8,111.1,134.6z M70.8,136.8h4.7v0.6h-1.8
			c0.4,0.4,1,0.7,1.7,0.8l0,0.6c-0.4,0-0.8-0.2-1.2-0.3v2.1h-0.6v-0.1h-4.1v0.1H69v-2c-0.3,0.2-0.7,0.3-1.2,0.3l0-0.6
			c0.7-0.1,1.3-0.4,1.7-0.8h-1.8v-0.6h2.4c0.1-0.1,0.2-0.2,0.2-0.3h-1.8v-2.7h6.2v2.7H71C70.9,136.6,70.9,136.7,70.8,136.8z
			 M69.1,134.9h5v-0.5h-5V134.9z M74.1,135.9v-0.5h-5v0.5H74.1z M73.7,139.4h-4.1v0.4h4.1V139.4z M73.7,138.4h-4.1v0.4h4.1V138.4z
			 M70.3,137.4c-0.1,0.2-0.3,0.3-0.5,0.5h3.5c-0.2-0.1-0.3-0.3-0.5-0.5H70.3z M73.3,132.3h-0.6v0.5h-2.2v-0.5h-0.6v0.5h-2.3v0.6h2.3
			v0.3h0.6v-0.3h2.2v0.3h0.6v-0.3h2.3v-0.6h-2.3V132.3z M150.8,139l0.1,0.6c0,0,4.2-0.5,5.5-4.4l-0.5-0.2
			C154.6,138.5,150.9,139,150.8,139z M159.9,135.5c0-0.3,0-0.8,0-0.9c0-0.3-0.1-0.7-0.3-0.9c0-0.1-0.1-0.1-0.2-0.2l-0.2,0.5
			c0.1,0.2,0.2,0.4,0.2,0.6c0,0,0,0.6,0,0.9l0,3.8h0.6l0-2.9l3.7,0.6l0.1-0.6l-3.8-0.6L159.9,135.5z M151.4,133.6L151,134l1.8,1.7
			l0.4-0.4L151.4,133.6z M146.2,136.6c0.4-0.7,0.6-1.5,0.8-2.1l0-0.1c0.1-0.5,0.2-0.6,0.2-0.7l-0.6-0.1c0,0,0,0.2-0.2,0.6l0,0.1
			c-0.1,0.5-0.4,1.2-0.7,1.9c-1.1-0.8-2.1-1.4-2.2-1.4l-0.3,0.5c0,0,1.1,0.6,2.2,1.4c-0.6,1.1-1.5,2-2.7,2.2l0.1,0.6
			c1.4-0.2,2.4-1.2,3.1-2.4c0.7,0.5,1.3,1.1,1.6,1.6l0.5-0.3C147.6,137.8,146.9,137.1,146.2,136.6z M162.7,134.3
			c0,0,0.6,0.6,0.8,1.1l0.5-0.3c-0.3-0.6-0.9-1.3-1-1.3L162.7,134.3z M99.8,137.4c0,1-0.8,1.8-1.9,1.8s-1.9-0.8-1.9-1.8
			c0-1,0.8-1.8,1.9-1.8S99.8,136.4,99.8,137.4z M98.9,137.4c0-0.4-0.4-0.8-0.9-0.8c-0.5,0-0.9,0.3-0.9,0.8c0,0.4,0.4,0.8,0.9,0.8
			C98.5,138.1,98.9,137.8,98.9,137.4z M163.5,133.8c0,0,0.6,0.6,0.8,1.1l0.5-0.3c-0.3-0.6-0.9-1.3-1-1.3L163.5,133.8z M138.9,134.2
			h-4.1v0.6h4.1c0.1,0,0.1,0,0.1,0.1v3.1v0.3h-4.2v0.6h4.2v0.1h0.6v-0.1V138v-3.1C139.5,134.5,139.2,134.2,138.9,134.2z
			 M112.7,133.8c0,0,0.6,0.7,1,1.3l0.5-0.3c-0.4-0.7-1-1.4-1.1-1.4L112.7,133.8z M108.5,138.7c-0.3-0.1-0.4-0.2-0.5-0.4
			c-0.1-0.3,0.1-0.7,0.5-1.2l-0.4-0.4c-0.4,0.4-0.8,1.1-0.6,1.7c0.1,0.4,0.4,0.6,0.8,0.8c0.5,0.2,1.2,0.3,1.8,0.3
			c0.9,0,1.9-0.2,2.8-0.7l-0.2-0.5C111.3,139,109.7,139.2,108.5,138.7z M103.7,139c-0.1,0.3-0.2,0.4-0.2,0.4h-1.6
			c-0.1,0-0.2-0.1-0.2-0.1l0.4-4.8c0-0.2,0-0.3-0.2-0.4c-0.1-0.1-0.3-0.2-0.5-0.2h-2.1c0-0.1,0-0.2,0-0.4l0-0.1c0-0.4-0.1-0.7-0.3-1
			c-0.1-0.1-0.2-0.2-0.2-0.2l-0.2,0.6c0.1,0.2,0.2,0.4,0.2,0.7l0,0.1c0,0.1,0,0.3,0,0.4h-2.1v0.6h2c-0.1,0.3-0.1,0.6-0.2,0.9
			c0.2,0,0.4,0.1,0.5,0.2c0.1-0.4,0.2-0.7,0.3-1h2.2l0.1,0l-0.4,4.8c0,0.4,0.3,0.7,0.7,0.7h1.6c0.2,0,0.6-0.1,0.8-0.9l0.1-0.9
			l-0.6,0L103.7,139z M118.6,138.5c-0.1-0.1-0.3-0.3-0.1-0.8c0.8-2.4,3.6-2.6,3.6-2.6l0-0.6c-0.1,0-1.5,0.1-2.7,1.1l-0.1-0.4
			c-0.1-0.3-0.3-0.9-0.3-0.9c-0.1-0.4-0.4-0.7-0.7-0.9c-0.1,0-0.2-0.1-0.3-0.1l0,0.6c0.2,0.1,0.4,0.3,0.4,0.6c0,0,0.2,0.7,0.3,1
			l0.2,0.6c-0.4,0.4-0.7,0.9-0.9,1.5c-0.2,0.7,0,1.2,0.2,1.4c0.4,0.5,1.2,0.6,2,0.6c1.2,0,2.4-0.3,2.6-0.3l-0.1-0.6
			C121.4,138.9,119.2,139.2,118.6,138.5z M113.6,133.2c0,0,0.6,0.7,1,1.3l0.5-0.3c-0.4-0.7-1-1.4-1.1-1.4L113.6,133.2z M127.5,138.8
			l0-3.2c0-0.3,0-0.8,0-0.9c0-0.3-0.1-0.7-0.3-0.9c-0.1-0.1-0.1-0.1-0.2-0.2l-0.2,0.5c0.1,0.2,0.2,0.4,0.2,0.6c0,0,0,0.6,0,0.9
			l0,3.7l0.4,0.3c0.2-0.1,3.9-1.5,4.7-3.7l-0.5-0.2C130.9,137.2,128.4,138.4,127.5,138.8z"/>
	</g>
</g>
</svg>
